<?xml version="1.0" encoding="utf-8"?>
<!-- Generator: Adobe Illustrator 24.0.2, SVG Export Plug-In . SVG Version: 6.00 Build 0)  -->
<svg version="1.1" id="Layer_1" xmlns="http://www.w3.org/2000/svg" xmlns:xlink="http://www.w3.org/1999/xlink" x="0px" y="0px"
	 viewBox="0 0 179 54.4" style="enable-background:new 0 0 179 54.4;" xml:space="preserve">
<style type="text/css">
	.st0{display:none;}
	.st1{display:inline;}
	.st2{fill:#FFFFFF;}
	.st3{opacity:0.3185;fill-rule:evenodd;clip-rule:evenodd;fill:#FFFFFF;enable-background:new    ;}
	.st4{enable-background:new    ;}
</style>
<title>Group 7</title>
<desc>Created with Sketch.</desc>
<g id="Symbols" class="st0">
	<g id="Group-7" class="st1">
		<path id="Staradmin" class="st2" d="M62.8,17.3c-0.3-1.4-1.3-2.1-3-2.1c-0.9,0-1.5,0.2-2,0.5s-0.7,0.8-0.7,1.2s0.2,0.9,0.5,1.1
			s0.8,0.5,1.4,0.8l3.5,1.4c1.2,0.5,2.1,1.1,2.8,1.8c0.7,0.7,1,1.6,1,2.7c0,1.5-0.5,2.6-1.6,3.5S62,29.5,60,29.5
			c-1.8,0-3.3-0.4-4.4-1.3c-1.3-1-1.9-2.3-2-4.1h2.9c0,1.3,0.7,2.2,2.1,2.5c0.4,0.1,1,0.2,1.7,0.2s1.3-0.2,1.9-0.5
			c0.6-0.3,0.9-0.8,0.9-1.4s-0.2-1-0.5-1.3s-0.8-0.6-1.5-0.9l-3.2-1.3c-1.3-0.5-2.2-1-2.9-1.7s-1-1.5-1-2.7c0-1.4,0.5-2.4,1.6-3.2
			s2.5-1.2,4.3-1.2s3.2,0.4,4.2,1.3c1,0.8,1.6,2,1.7,3.5h-3V17.3z M77.1,28.7c-1.1,0.4-2,0.6-2.6,0.6s-1.2-0.1-1.7-0.2
			c-0.5-0.2-0.9-0.4-1.3-0.7c-0.8-0.7-1.2-1.6-1.2-2.8v-6.8h-1.7v-2h1.7v-3.2h3v3.2h3.3v2h-3.3v6.7c0,1,0.5,1.5,1.4,1.5
			c0.5,0,1.1-0.1,1.9-0.4L77.1,28.7z M84.2,21.9c1,0,2.1,0.2,3.3,0.5v-1.2c0-0.9-0.2-1.5-0.5-1.9s-0.9-0.6-1.7-0.6s-1.4,0.2-1.8,0.5
			s-0.6,0.7-0.6,1.3h-3.2c0-1.4,0.5-2.4,1.5-3s2.3-0.9,4.1-0.9c2.5,0,4.1,0.9,4.8,2.6c0.3,0.6,0.4,1.3,0.4,2.1V29h-2.6l-0.2-1.6
			c-0.8,1.3-2,2-3.6,2s-2.8-0.4-3.7-1.1c-0.8-0.7-1.2-1.7-1.2-2.8s0.4-2,1.3-2.6S82.6,21.9,84.2,21.9z M87.5,24.3
			c-1-0.3-1.9-0.4-2.8-0.4c-1.6,0-2.4,0.5-2.4,1.6c0,0.5,0.2,0.8,0.6,1.2c0.4,0.3,1,0.5,1.8,0.5s1.5-0.3,2-0.8S87.5,25.1,87.5,24.3z
			 M97.7,19.3c0.7-1.8,1.8-2.6,3.3-2.6c0.3,0,0.6,0.1,1.1,0.2v3c-0.5-0.1-0.9-0.1-1.4-0.1c-2,0-3,1.4-3,4.1V29h-2.9V16.8h2.9V19.3z
			 M109.2,21.9c1,0,2.1,0.2,3.3,0.5v-1.2c0-0.9-0.2-1.5-0.5-1.9s-0.9-0.6-1.7-0.6s-1.4,0.2-1.8,0.5s-0.6,0.7-0.6,1.3h-3.2
			c0-1.4,0.5-2.4,1.5-3s2.3-0.9,4.1-0.9c2.5,0,4.1,0.9,4.8,2.6c0.3,0.6,0.4,1.3,0.4,2.1V29h-2.6l-0.2-1.6c-0.8,1.3-2,2-3.6,2
			s-2.8-0.4-3.7-1.1c-0.8-0.7-1.2-1.7-1.2-2.8s0.4-2,1.3-2.6S107.6,21.9,109.2,21.9z M112.5,24.3c-1-0.3-1.9-0.4-2.8-0.4
			c-1.6,0-2.4,0.5-2.4,1.6c0,0.5,0.2,0.8,0.6,1.2c0.4,0.3,1,0.5,1.8,0.5s1.5-0.3,2-0.8S112.5,25.1,112.5,24.3z M127.7,27.1
			c-0.8,1.5-1.9,2.2-3.5,2.2s-2.8-0.6-3.9-1.8c-1.1-1.2-1.6-2.8-1.6-4.7s0.5-3.4,1.6-4.6c1-1.2,2.3-1.7,3.8-1.7s2.7,0.6,3.4,1.8
			v-6.5h3V29H128L127.7,27.1z M124.6,19.2c-0.8,0-1.5,0.3-2.1,1s-0.8,1.6-0.8,2.7s0.3,2,0.8,2.7c0.6,0.7,1.3,1,2.2,1
			c0.7,0,1.4-0.3,1.9-0.8c0.6-0.6,0.9-1.3,0.9-2.2V22c0-0.9-0.3-1.6-0.9-2.1C126.1,19.4,125.4,19.2,124.6,19.2z M145.9,19.1
			c0.8-1.8,2.2-2.6,4.1-2.6c1.5,0,2.6,0.5,3.4,1.5c0.8,0.9,1.2,2.2,1.2,3.9V29h-3v-7.1c0-0.9-0.2-1.6-0.6-2c-0.4-0.5-1-0.7-1.8-0.7
			s-1.4,0.3-1.9,1s-0.8,1.7-0.8,3.1V29h-2.9v-7.1c0-0.9-0.2-1.6-0.7-2c-0.4-0.5-1-0.7-1.8-0.7s-1.5,0.3-2,1.1
			c-0.6,0.7-0.9,1.7-0.9,3.1V29h-2.9V16.9h2.6L138,19c0.8-1.6,2.1-2.4,3.9-2.4c1,0,1.9,0.2,2.5,0.7S145.6,18.3,145.9,19.1z
			 M159.1,16.8h2.9V29h-2.9V16.8z M158.7,12.9c0-0.5,0.2-1,0.5-1.3s0.8-0.5,1.4-0.5c0.6,0,1,0.2,1.3,0.5s0.5,0.7,0.5,1.3
			c0,0.5-0.2,1-0.5,1.3s-0.8,0.5-1.3,0.5c-0.6,0-1-0.2-1.4-0.5S158.7,13.5,158.7,12.9z M169.9,19c0.8-1.6,2.1-2.4,3.8-2.4
			c1.5,0,2.6,0.5,3.4,1.5c0.8,1,1.1,2.3,1.1,3.9v7h-2.9v-7.1c0-0.9-0.2-1.6-0.7-2c-0.4-0.5-1-0.7-1.8-0.7s-1.5,0.3-2,1.1
			c-0.6,0.7-0.9,1.7-0.9,3.1V29h-3V16.9h2.6L169.9,19z"/>
		<g id="Group">
			<circle id="Oval" class="st3" cx="20" cy="20" r="20"/>
			<path id="S" class="st2" d="M22.4,23.2c0-0.5-0.2-0.9-0.5-1.2s-1-0.6-1.9-0.9s-1.6-0.6-2.2-0.9C16,19.3,15,18.1,15,16.5
				c0-0.8,0.2-1.5,0.7-2.1s1.1-1.1,1.9-1.4s1.8-0.5,2.8-0.5s1.9,0.2,2.7,0.5s1.4,0.9,1.9,1.6s0.7,1.4,0.7,2.3h-3.4
				c0-0.6-0.2-1-0.5-1.3s-0.8-0.5-1.4-0.5s-1.1,0.1-1.5,0.4s-0.5,0.6-0.5,1c0,0.4,0.2,0.7,0.6,1s1.1,0.6,2.1,0.9s1.8,0.7,2.4,1
				c1.5,0.9,2.3,2.1,2.3,3.7c0,1.2-0.5,2.2-1.4,2.9s-2.2,1.1-3.9,1.1c-1.2,0-2.2-0.2-3.1-0.6s-1.6-1-2.1-1.7s-0.7-1.5-0.7-2.5H18
				c0,0.8,0.2,1.3,0.6,1.7s1,0.5,1.9,0.5c0.6,0,1-0.1,1.3-0.4S22.4,23.7,22.4,23.2z"/>
		</g>
	</g>
</g>
<g class="st4">
	<path class="st2" d="M40.7,48l3.4-4.1c1.1,1.6,2.4,2.4,3.8,2.4c1.8,0,2.7-1.1,2.7-3.3v-9.8H43v-5h13.6v14.3c0,5.9-2.9,8.8-8.4,8.8
		C45,51.3,42.3,50.2,40.7,48z"/>
	<path class="st2" d="M60.4,42.1c0-5.3,4-9,9.5-9c5.6,0,9.5,3.8,9.5,9c0,5.3-3.9,9.1-9.5,9.1C64.4,51.2,60.4,47.4,60.4,42.1z
		 M73.4,42.1c0-2.7-1.5-4.1-3.5-4.1c-2,0-3.5,1.5-3.5,4.1c0,2.7,1.6,4.2,3.5,4.2C71.9,46.3,73.4,44.8,73.4,42.1z"/>
	<path class="st2" d="M101.9,42.1c0,5.6-3.7,9.1-8.3,9.1c-2.2,0-3.8-0.6-5-2v1.8h-5.6V26.8H89v8c1.1-1.2,2.7-1.8,4.7-1.8
		C98.2,33,101.9,36.5,101.9,42.1z M96,42.1c0-2.7-1.6-4.1-3.5-4.1c-2,0-3.5,1.5-3.5,4.1c0,2.7,1.6,4.2,3.5,4.2
		C94.4,46.3,96,44.8,96,42.1z"/>
	<path class="st2" d="M105.9,28.2h6.1v22.7h-6.1V28.2z"/>
	<path class="st2" d="M128.8,50.2c-1,0.7-2.5,1-4.1,1c-4.3,0-6.8-2.2-6.8-6.7v-5.9h-2.5V34h2.5v-4.6h5.9V34h3.8v4.6h-3.8v5.8
		c0,1.3,0.7,2,1.8,2c0.7,0,1.3-0.2,1.8-0.6L128.8,50.2z"/>
	<path class="st2" d="M131.3,47.8c0-1.9,1.5-3.3,3.5-3.3c2.1,0,3.5,1.4,3.5,3.3c0,1.9-1.4,3.4-3.5,3.4
		C132.7,51.2,131.3,49.7,131.3,47.8z M131.3,28.2h7l-1.2,14.4h-4.7L131.3,28.2z"/>
</g>
</svg>
